<svg xmlns="http://www.w3.org/2000/svg" viewBox="-214 -214 428 428">
  <rect x="-214" y="-214" width="428" height="428" rx="80" fill="#0b0d10"/>
  <g fill="#8bd7c1" transform="scale(.92)">
    <path fill-rule="evenodd" d="M -8 -41.57 L 8 -41.57 L 32.0007 -27.7132 L 40.0007 -13.8568 L 40.0007 13.8568 L 32.0007 27.7132 L 8 41.57 L -8 41.57 L -32.0007 27.7132 L -40.0007 13.8568 L -40.0007 -13.8568 L -32.0007 -27.7132 Z M -4.2487 -27.57 L 4.2487 -27.57 L 21.752 -17.4645 L 26.0007 -10.1055 L 26.0007 10.1055 L 21.752 17.4645 L 4.2487 27.57 L -4.2487 27.57 L -21.752 17.4645 L -26.0007 10.1055 L -26.0007 -10.1055 L -21.752 -17.4645 Z"/>
    <path d="M -8 -41.57 L -40 -96.99 L 0 -166.28 L 32 -110.85 L 24 -96.99 L 0 -138.56 L -24 -96.99 L 8 -41.57 Z"/>
    <path d="M 32.0007 -27.7132 L 63.9958 -83.136 L 144.0027 -83.14 L 111.9989 -27.7122 L 95.9958 -27.7104 L 119.9965 -69.28 L 71.9958 -69.2796 L 40.0007 -13.8568 Z"/>
    <path d="M 40.0007 13.8568 L 103.9958 13.854 L 144.0027 83.14 L 79.9989 83.1378 L 71.9958 69.2796 L 119.9965 69.28 L 95.9958 27.7104 L 32.0007 27.7132 Z"/>
    <path d="M 8 41.57 L 40 96.99 L 0 166.28 L -32 110.85 L -24 96.99 L 0 138.56 L 24 96.99 L -8 41.57 Z"/>
    <path d="M -32.0007 27.7132 L -63.9958 83.136 L -144.0027 83.14 L -111.9989 27.7122 L -95.9958 27.7104 L -119.9965 69.28 L -71.9958 69.2796 L -40.0007 13.8568 Z"/>
    <path d="M -40.0007 -13.8568 L -103.9958 -13.854 L -144.0027 -83.14 L -79.9989 -83.1378 L -71.9958 -69.2796 L -119.9965 -69.28 L -95.9958 -27.7104 L -32.0007 -27.7132 Z"/>
  </g>
</svg>
