<svg xmlns="http://www.w3.org/2000/svg" viewBox="-176 -200 352 400" role="img">
  <path d="M -144 -83.14 L -64 -83.14 L -56 -69.28 L -120 -69.28 L -96 -27.71 L -32 -27.71 L -37.46 -18.25 L -32 -27.71 L -8 -41.57 L -40 -96.99 L 0 -166.28 L 40 -96.99 L 32 -83.14 L 0 -138.56 L -24 -96.99 L 8 -41.57 L 32 -27.71 L 37.46 -18.25 L 32 -27.71 L 64 -83.14 L 144 -83.14 L 104 -13.85 L 88 -13.86 L 120 -69.28 L 72 -69.28 L 40 -13.86 L 40 -13.86 L 40 13.86 L 40 13.86 L 104 13.85 L 144 83.14 L 64 83.14 L 56 69.28 L 120 69.28 L 96 27.71 L 32 27.71 L 37.46 18.25 L 32 27.71 L 8 41.57 L 40 96.99 L 0 166.28 L -40 96.99 L -32 83.14 L 0 138.56 L 24 96.99 L -8 41.57 L -32 27.71 L -37.46 18.25 L -32 27.71 L -64 83.14 L -144 83.14 L -104 13.85 L -88 13.86 L -120 69.28 L -72 69.28 L -40 13.86 L -40 13.86 L -40 -13.86 L -40 -13.86 L -104 -13.85 L -144 -83.14 Z M -24 0 L -24 13.86 L 0 27.71 L 24 13.86 L 24 0 L -24 0 Z" fill="#000000" fill-rule="evenodd" />
</svg>
